<svg xmlns="http://www.w3.org/2000/svg" viewBox="0 0 1200 600" width="1200" height="600">
  <defs>
    <pattern id="grid" width="40" height="40" patternUnits="userSpaceOnUse">
      <path d="M 40 0 L 0 0 0 40" fill="none" stroke="#1a1730" stroke-width="0.5"/>
    </pattern>
    <filter id="glow" x="-50%" y="-50%" width="200%" height="200%">
      <feGaussianBlur in="SourceGraphic" stdDeviation="8" result="blur"/>
      <feColorMatrix in="blur" type="matrix" values="1 0 0 0 0  0 0.3 0 0 0  0 0 1 0 0  0 0 0 0.4 0"/>
      <feMerge>
        <feMergeNode/>
        <feMergeNode in="SourceGraphic"/>
      </feMerge>
    </filter>
    <filter id="softGlow" x="-30%" y="-30%" width="160%" height="160%">
      <feGaussianBlur stdDeviation="3" result="blur"/>
      <feColorMatrix in="blur" type="matrix" values="1 0 0 0 0  0 0.3 0 0 0  0 0 1 0 0  0 0 0 0.25 0"/>
      <feMerge>
        <feMergeNode/>
        <feMergeNode in="SourceGraphic"/>
      </feMerge>
    </filter>
    <linearGradient id="dividerGrad" x1="0" y1="0" x2="0" y2="1">
      <stop offset="0%" stop-color="#7c3aed" stop-opacity="0"/>
      <stop offset="50%" stop-color="#7c3aed" stop-opacity="0.5"/>
      <stop offset="100%" stop-color="#7c3aed" stop-opacity="0"/>
    </linearGradient>
    <radialGradient id="bgGlow" cx="50%" cy="40%" r="45%">
      <stop offset="0%" stop-color="#1a1440" stop-opacity="1"/>
      <stop offset="100%" stop-color="#0f0d1a" stop-opacity="1"/>
    </radialGradient>
    <marker id="arrow" markerWidth="8" markerHeight="6" refX="8" refY="3" orient="auto">
      <path d="M0,0 L8,3 L0,6" fill="#7c3aed" opacity="0.5"/>
    </marker>
  </defs>

  <!-- Background -->
  <rect width="1200" height="600" fill="#0f0d1a"/>
  <rect width="1200" height="600" fill="url(#bgGlow)"/>
  <rect width="1200" height="600" fill="url(#grid)" opacity="0.35"/>

  <!-- ===================== LEFT SIDE: LOCKED ===================== -->
  <g transform="translate(420, 155)">
    <rect x="-55" y="0" width="110" height="88" rx="12" fill="#7c3aed" filter="url(#glow)"/>
    <path d="M -32 0 L -32 -32 Q -32 -65 0 -65 Q 32 -65 32 -32 L 32 0"
          fill="none" stroke="#7c3aed" stroke-width="11" stroke-linecap="round"/>
    <circle cx="0" cy="35" r="11" fill="#0f0d1a"/>
    <rect x="-4.5" y="39" width="9" height="22" rx="3" fill="#0f0d1a"/>
    <g transform="translate(62, -42)">
      <rect x="0" y="0" width="66" height="30" rx="5" fill="#1e1b2e" stroke="#7c3aed" stroke-width="1.5"/>
      <line x1="0" y1="15" x2="-10" y2="6" stroke="#7c3aed" stroke-width="1" stroke-linecap="round"/>
      <text x="33" y="20" text-anchor="middle" font-family="'SF Mono', 'Fira Code', 'Consolas', monospace" font-size="14" font-weight="700" fill="#a78bfa">$0.02</text>
    </g>
  </g>

  <!-- Arrow between locks -->
  <line x1="535" y1="210" x2="625" y2="210" stroke="#7c3aed" stroke-width="1.5" stroke-dasharray="6,4" opacity="0.4" marker-end="url(#arrow)"/>

  <!-- ===================== RIGHT SIDE: UNLOCKED ===================== -->
  <g transform="translate(780, 155)">
    <rect x="-55" y="0" width="110" height="88" rx="12" fill="#7c3aed" filter="url(#glow)"/>
    <path d="M -32 0 L -32 -32 Q -32 -65 0 -65 Q 32 -65 32 -32 L 32 -15"
          fill="none" stroke="#7c3aed" stroke-width="11" stroke-linecap="round"
          transform="rotate(-30, 32, 0)" opacity="0.95"/>
    <circle cx="0" cy="35" r="11" fill="#a78bfa" opacity="0.25"/>
    <rect x="-4.5" y="39" width="9" height="22" rx="3" fill="#a78bfa" opacity="0.25"/>
    <g transform="translate(45, -80)" filter="url(#softGlow)">
      <rect x="0" y="0" width="72" height="42" rx="9" fill="white"/>
      <polygon points="16,42 26,55 32,42" fill="white"/>
      <text x="36" y="29" text-anchor="middle" font-family="'SF Mono', 'Fira Code', 'Consolas', monospace" font-size="19" font-weight="800" fill="#7c3aed">Ha!</text>
    </g>
  </g>

  <!-- Labels -->
  <text x="420" y="282" text-anchor="middle" font-family="'SF Mono', 'Fira Code', 'Consolas', monospace" font-size="11" fill="#4c3a7a" letter-spacing="4">LOCKED</text>
  <text x="780" y="282" text-anchor="middle" font-family="'SF Mono', 'Fira Code', 'Consolas', monospace" font-size="11" fill="#a78bfa" letter-spacing="4">UNLOCKED</text>

  <!-- ===================== BOTTOM TEXT ===================== -->
  <text x="600" y="400" text-anchor="middle" font-family="'Inter', 'Helvetica Neue', 'Arial', sans-serif" font-size="34" font-weight="700" fill="white" letter-spacing="0.5">Sell a joke. Sell anything.</text>
  <text x="600" y="440" text-anchor="middle" font-family="'SF Mono', 'Fira Code', 'Consolas', monospace" font-size="13" fill="#6b5b95" letter-spacing="2">micropayments for content</text>
</svg>
